<?xml version="1.0" encoding="UTF-8" standalone="no"?>
<!-- Generator: Adobe Illustrator 19.2.0, SVG Export Plug-In . SVG Version: 6.00 Build 0)  -->

<svg
   xmlns:dc="http://purl.org/dc/elements/1.1/"
   xmlns:cc="http://creativecommons.org/ns#"
   xmlns:rdf="http://www.w3.org/1999/02/22-rdf-syntax-ns#"
   xmlns:svg="http://www.w3.org/2000/svg"
   xmlns="http://www.w3.org/2000/svg"
   xmlns:sodipodi="http://sodipodi.sourceforge.net/DTD/sodipodi-0.dtd"
   xmlns:inkscape="http://www.inkscape.org/namespaces/inkscape"
   version="1.1"
   id="Layer_1"
   x="0px"
   y="0px"
   viewBox="0 0 40 40"
   style="enable-background:new 0 0 40 40;"
   xml:space="preserve"
   sodipodi:docname="cv.svg"
   inkscape:version="0.92.3 (2405546, 2018-03-11)"><metadata
   id="metadata928"><rdf:RDF><cc:Work
       rdf:about=""><dc:format>image/svg+xml</dc:format><dc:type
         rdf:resource="http://purl.org/dc/dcmitype/StillImage" /></cc:Work></rdf:RDF></metadata><defs
   id="defs926" /><sodipodi:namedview
   pagecolor="#ffffff"
   bordercolor="#666666"
   borderopacity="1"
   objecttolerance="10"
   gridtolerance="10"
   guidetolerance="10"
   inkscape:pageopacity="0"
   inkscape:pageshadow="2"
   inkscape:window-width="1853"
   inkscape:window-height="1025"
   id="namedview924"
   showgrid="false"
   inkscape:zoom="5.9"
   inkscape:cx="20"
   inkscape:cy="20"
   inkscape:window-x="67"
   inkscape:window-y="27"
   inkscape:window-maximized="1"
   inkscape:current-layer="Layer_1" />
<style
   type="text/css"
   id="style913">
	.st0{fill:#666766;}
	.st1{fill:#F4F4F4;}
</style>
<ellipse
   transform="matrix(6.191442e-002 -0.9981 0.9981 6.191442e-002 -1.1999 38.7233)"
   class="st0"
   cx="20"
   cy="20"
   rx="20"
   ry="20"
   id="ellipse915"
   style="fill:#000000;fill-opacity:1" />
<g
   id="g921">
	<path
   class="st1"
   d="M6.4,21.1v-2.1c0-3.8,2-6.6,6.4-6.6c3.7,0,6,2.5,6.2,5.5h-2.7c-0.2-1.7-1.2-3.1-3.4-3.1c-2.5,0-3.5,1.7-3.5,4   v2.4c0,2.4,1.1,4,3.5,4c2.2,0,3.2-1.5,3.4-3.1H19c-0.1,3-2.4,5.5-6.2,5.5C8.4,27.7,6.4,24.8,6.4,21.1z"
   id="path917" />
	<path
   class="st1"
   d="M28.7,27.4h-3.3l-4.9-14.7h3l3.5,11.5l3.5-11.5h3L28.7,27.4z"
   id="path919" />
</g>
</svg>